<svg width="16" height="15" viewBox="0 0 16 15" fill="none" xmlns="http://www.w3.org/2000/svg">
<path d="M1.92498 14.4845C1.49323 14.4845 1.12363 14.3308 0.816168 14.0233C0.50871 13.7158 0.35498 13.3462 0.35498 12.9145V1.92449C0.35498 1.49274 0.50871 1.12314 0.816168 0.81568C1.12363 0.508221 1.49323 0.354492 1.92498 0.354492H12.915C13.3467 0.354492 13.7163 0.508221 14.0238 0.81568C14.3313 1.12314 14.485 1.49274 14.485 1.92449V3.88699H12.915V1.92449H1.92498V12.9145H12.915V10.952H14.485V12.9145C14.485 13.3462 14.3313 13.7158 14.0238 14.0233C13.7163 14.3308 13.3467 14.4845 12.915 14.4845H1.92498ZM8.20498 11.3445C7.77323 11.3445 7.40363 11.1908 7.09617 10.8833C6.78871 10.5758 6.63498 10.2062 6.63498 9.77449V5.06449C6.63498 4.63274 6.78871 4.26314 7.09617 3.95568C7.40363 3.64822 7.77323 3.49449 8.20498 3.49449H13.7C14.1317 3.49449 14.5013 3.64822 14.8088 3.95568C15.1163 4.26314 15.27 4.63274 15.27 5.06449V9.77449C15.27 10.2062 15.1163 10.5758 14.8088 10.8833C14.5013 11.1908 14.1317 11.3445 13.7 11.3445H8.20498ZM13.7 9.77449V5.06449H8.20498V9.77449H13.7ZM10.56 8.59699C10.8871 8.59699 11.1651 8.48251 11.394 8.25355C11.623 8.0246 11.7375 7.74658 11.7375 7.41949C11.7375 7.09241 11.623 6.81439 11.394 6.58543C11.1651 6.35647 10.8871 6.24199 10.56 6.24199C10.2329 6.24199 9.95488 6.35647 9.72592 6.58543C9.49696 6.81439 9.38248 7.09241 9.38248 7.41949C9.38248 7.74658 9.49696 8.0246 9.72592 8.25355C9.95488 8.48251 10.2329 8.59699 10.56 8.59699Z" fill="#E1E1E1"/>
</svg>
