<svg width="187" height="139" viewBox="0 0 187 139" fill="none" xmlns="http://www.w3.org/2000/svg">
  <g filter="url(#filter0_dddd_20_21671)">
    <path
      d="M186.71 -7.74757L63.3373 4.7767C60.0653 5.10887 57.0592 6.72725 54.9803 9.27582C52.9015 11.8244 51.9203 15.0944 52.2524 18.3664L56.6359 61.547C60.7627 102.198 82.9416 124.837 100.822 136.67C120.079 149.408 138.27 152.555 139.061 152.677C140.151 152.858 141.269 152.744 142.3 152.348C143.05 152.07 160.214 145.334 176.542 128.984C191.633 113.803 208.81 87.1694 204.684 46.5179L200.3 3.33731C199.968 0.0652559 198.35 -2.94084 195.801 -5.01966C193.252 -7.09848 189.982 -8.07974 186.71 -7.74757ZM157.213 70.0336L138.707 71.9122L140.586 90.4182C140.752 92.0542 140.261 93.6892 139.222 94.9635C138.182 96.2378 136.679 97.047 135.043 97.2131C133.407 97.3792 131.772 96.8885 130.498 95.8491C129.224 94.8097 128.415 93.3067 128.248 91.6706L126.37 73.1647L107.864 75.0433C106.228 75.2094 104.593 74.7188 103.319 73.6793C102.044 72.6399 101.235 71.1369 101.069 69.5009C100.903 67.8648 101.393 66.2298 102.433 64.9555C103.472 63.6813 104.975 62.8721 106.611 62.706L125.117 60.8273L123.239 42.3214C123.073 40.6853 123.563 39.0504 124.603 37.7761C125.642 36.5018 127.145 35.6926 128.781 35.5265C130.417 35.3604 132.052 35.8511 133.326 36.8905C134.601 37.9299 135.41 39.4329 135.576 41.0689L137.455 59.5749L155.961 57.6963C157.597 57.5302 159.232 58.0208 160.506 59.0602C161.78 60.0996 162.589 61.6027 162.756 63.2387C162.922 64.8748 162.431 66.5098 161.392 67.784C160.352 69.0583 158.849 69.8675 157.213 70.0336Z"
      fill="#302409" />
    <path
      d="M142.3 152.348C141.269 152.744 140.151 152.858 139.061 152.677L142.3 152.348ZM142.3 152.348C143.05 152.07 160.214 145.334 176.542 128.984L142.3 152.348ZM139.143 152.184L139.137 152.183C138.387 152.067 120.274 148.937 101.098 136.253C83.3083 124.48 61.2413 101.962 57.1334 61.4965L52.7499 18.3159C52.4311 15.1758 53.3728 12.0377 55.3678 9.59185C57.3628 7.14604 60.2477 5.59292 63.3878 5.27415L186.761 -7.25013C189.901 -7.5689 193.039 -6.6272 195.485 -4.6322L195.801 -5.01966L195.485 -4.6322C197.931 -2.6372 199.484 0.247684 199.803 3.38781L204.186 46.5684C208.294 87.0341 191.202 113.527 176.188 128.631C159.929 144.912 142.838 151.615 142.126 151.88L142.12 151.882C141.173 152.246 140.145 152.35 139.143 152.184ZM137.902 59.027L136.073 41.0185C135.894 39.2505 135.02 37.6262 133.643 36.503C132.265 35.3798 130.499 34.8496 128.731 35.0291C126.963 35.2085 125.338 36.083 124.215 37.46C123.092 38.8371 122.562 40.6039 122.741 42.3719L124.569 60.3804L106.561 62.2085C104.793 62.388 103.169 63.2625 102.045 64.6395C100.922 66.0165 100.392 67.7834 100.572 69.5514C100.751 71.3193 101.625 72.9436 103.002 74.0668C104.38 75.19 106.146 75.7202 107.914 75.5407L125.923 73.7126L127.751 91.7211C127.93 93.4891 128.805 95.1134 130.182 96.2366C131.559 97.3598 133.326 97.89 135.094 97.7105C136.862 97.531 138.486 96.6566 139.609 95.2796C140.732 93.9025 141.263 92.1357 141.083 90.3677L139.255 72.3592L157.264 70.531C159.032 70.3516 160.656 69.4771 161.779 68.1001C162.902 66.723 163.432 64.9562 163.253 63.1882C163.073 61.4203 162.199 59.796 160.822 58.6728C159.445 57.5496 157.678 57.0194 155.91 57.1988L137.902 59.027Z"
      stroke="#261F0F" />
  </g>
  <defs>
    <filter id="filter0_dddd_20_21671" x="0.188965" y="-17.811" width="257.117" height="351.572"
      filterUnits="userSpaceOnUse" color-interpolation-filters="sRGB">
      <feFlood flood-opacity="0" result="BackgroundImageFix" />
      <feColorMatrix in="SourceAlpha" type="matrix"
        values="0 0 0 0 0 0 0 0 0 0 0 0 0 0 0 0 0 0 127 0" result="hardAlpha" />
      <feOffset dy="8" />
      <feGaussianBlur stdDeviation="9" />
      <feColorMatrix type="matrix" values="0 0 0 0 0 0 0 0 0 0 0 0 0 0 0 0 0 0 0.1 0" />
      <feBlend mode="normal" in2="BackgroundImageFix" result="effect1_dropShadow_20_21671" />
      <feColorMatrix in="SourceAlpha" type="matrix"
        values="0 0 0 0 0 0 0 0 0 0 0 0 0 0 0 0 0 0 127 0" result="hardAlpha" />
      <feOffset dy="32" />
      <feGaussianBlur stdDeviation="16" />
      <feColorMatrix type="matrix" values="0 0 0 0 0 0 0 0 0 0 0 0 0 0 0 0 0 0 0.09 0" />
      <feBlend mode="normal" in2="effect1_dropShadow_20_21671" result="effect2_dropShadow_20_21671" />
      <feColorMatrix in="SourceAlpha" type="matrix"
        values="0 0 0 0 0 0 0 0 0 0 0 0 0 0 0 0 0 0 127 0" result="hardAlpha" />
      <feOffset dy="73" />
      <feGaussianBlur stdDeviation="22" />
      <feColorMatrix type="matrix" values="0 0 0 0 0 0 0 0 0 0 0 0 0 0 0 0 0 0 0.05 0" />
      <feBlend mode="normal" in2="effect2_dropShadow_20_21671" result="effect3_dropShadow_20_21671" />
      <feColorMatrix in="SourceAlpha" type="matrix"
        values="0 0 0 0 0 0 0 0 0 0 0 0 0 0 0 0 0 0 127 0" result="hardAlpha" />
      <feOffset dy="129" />
      <feGaussianBlur stdDeviation="26" />
      <feColorMatrix type="matrix" values="0 0 0 0 0 0 0 0 0 0 0 0 0 0 0 0 0 0 0.01 0" />
      <feBlend mode="normal" in2="effect3_dropShadow_20_21671" result="effect4_dropShadow_20_21671" />
      <feBlend mode="normal" in="SourceGraphic" in2="effect4_dropShadow_20_21671" result="shape" />
    </filter>
  </defs>
</svg>