<svg width="16" height="16" viewBox="0 0 16 16" fill="none" xmlns="http://www.w3.org/2000/svg">
  <path
    d="M5.9374 15.5L5.6374 13.1C5.4749 13.0375 5.32178 12.9625 5.17803 12.875C5.03428 12.7875 4.89365 12.6938 4.75615 12.5938L2.5249 13.5313L0.462402 9.96875L2.39365 8.50625C2.38115 8.41875 2.3749 8.33438 2.3749 8.25313V7.74688C2.3749 7.66563 2.38115 7.58125 2.39365 7.49375L0.462402 6.03125L2.5249 2.46875L4.75615 3.40625C4.89365 3.30625 5.0374 3.2125 5.1874 3.125C5.3374 3.0375 5.4874 2.9625 5.6374 2.9L5.9374 0.5H10.0624L10.3624 2.9C10.5249 2.9625 10.678 3.0375 10.8218 3.125C10.9655 3.2125 11.1062 3.30625 11.2437 3.40625L13.4749 2.46875L15.5374 6.03125L13.6062 7.49375C13.6187 7.58125 13.6249 7.66563 13.6249 7.74688V8.25313C13.6249 8.33438 13.6124 8.41875 13.5874 8.50625L15.5187 9.96875L13.4562 13.5313L11.2437 12.5938C11.1062 12.6938 10.9624 12.7875 10.8124 12.875C10.6624 12.9625 10.5124 13.0375 10.3624 13.1L10.0624 15.5H5.9374ZM7.2499 14H8.73115L8.99365 12.0125C9.38115 11.9125 9.74053 11.7656 10.0718 11.5719C10.403 11.3781 10.7062 11.1438 10.9812 10.8688L12.8374 11.6375L13.5687 10.3625L11.9562 9.14375C12.0187 8.96875 12.0624 8.78438 12.0874 8.59063C12.1124 8.39688 12.1249 8.2 12.1249 8C12.1249 7.8 12.1124 7.60313 12.0874 7.40938C12.0624 7.21563 12.0187 7.03125 11.9562 6.85625L13.5687 5.6375L12.8374 4.3625L10.9812 5.15C10.7062 4.8625 10.403 4.62188 10.0718 4.42813C9.74053 4.23438 9.38115 4.0875 8.99365 3.9875L8.7499 2H7.26865L7.00615 3.9875C6.61865 4.0875 6.25928 4.23438 5.92803 4.42813C5.59678 4.62188 5.29365 4.85625 5.01865 5.13125L3.1624 4.3625L2.43115 5.6375L4.04365 6.8375C3.98115 7.025 3.9374 7.2125 3.9124 7.4C3.8874 7.5875 3.8749 7.7875 3.8749 8C3.8749 8.2 3.8874 8.39375 3.9124 8.58125C3.9374 8.76875 3.98115 8.95625 4.04365 9.14375L2.43115 10.3625L3.1624 11.6375L5.01865 10.85C5.29365 11.1375 5.59678 11.3781 5.92803 11.5719C6.25928 11.7656 6.61865 11.9125 7.00615 12.0125L7.2499 14ZM8.0374 10.625C8.7624 10.625 9.38115 10.3688 9.89365 9.85625C10.4062 9.34375 10.6624 8.725 10.6624 8C10.6624 7.275 10.4062 6.65625 9.89365 6.14375C9.38115 5.63125 8.7624 5.375 8.0374 5.375C7.2999 5.375 6.67803 5.63125 6.17178 6.14375C5.66553 6.65625 5.4124 7.275 5.4124 8C5.4124 8.725 5.66553 9.34375 6.17178 9.85625C6.67803 10.3688 7.2999 10.625 8.0374 10.625Z"
    fill="#E8EAED" />
</svg>