<svg width="8" height="10" viewBox="0 0 8 10" fill="none" xmlns="http://www.w3.org/2000/svg">
<path d="M3 8C2.725 8 2.48958 7.90208 2.29375 7.70625C2.09792 7.51042 2 7.275 2 7V6.375C1.525 6.05 1.15625 5.63333 0.89375 5.125C0.63125 4.61667 0.5 4.075 0.5 3.5C0.5 2.525 0.839583 1.69792 1.51875 1.01875C2.19792 0.339583 3.025 0 4 0C4.975 0 5.80208 0.339583 6.48125 1.01875C7.16042 1.69792 7.5 2.525 7.5 3.5C7.5 4.075 7.36875 4.61458 7.10625 5.11875C6.84375 5.62292 6.475 6.04167 6 6.375V7C6 7.275 5.90208 7.51042 5.70625 7.70625C5.51042 7.90208 5.275 8 5 8H3ZM3 7H5V5.85L5.425 5.55C5.76667 5.31667 6.03125 5.01875 6.21875 4.65625C6.40625 4.29375 6.5 3.90833 6.5 3.5C6.5 2.80833 6.25625 2.21875 5.76875 1.73125C5.28125 1.24375 4.69167 1 4 1C3.30833 1 2.71875 1.24375 2.23125 1.73125C1.74375 2.21875 1.5 2.80833 1.5 3.5C1.5 3.90833 1.59375 4.29375 1.78125 4.65625C1.96875 5.01875 2.23333 5.31667 2.575 5.55L3 5.85V7ZM3 10C2.85833 10 2.73958 9.95208 2.64375 9.85625C2.54792 9.76042 2.5 9.64167 2.5 9.5V9H5.5V9.5C5.5 9.64167 5.45208 9.76042 5.35625 9.85625C5.26042 9.95208 5.14167 10 5 10H3Z" fill="#FAB000"/>
</svg>
