<svg width="14" height="14" viewBox="0 0 14 14" fill="none" xmlns="http://www.w3.org/2000/svg">
  <path
    d="M12.431 4.38758L9.61242 1.56898C9.44784 1.40539 9.22542 1.31324 8.99336 1.3125H5.00664C4.77458 1.31324 4.55216 1.40539 4.38758 1.56898L1.56898 4.38758C1.40539 4.55216 1.31324 4.77458 1.3125 5.00664V8.99336C1.31324 9.22542 1.40539 9.44784 1.56898 9.61242L4.38758 12.431C4.55216 12.5946 4.77458 12.6868 5.00664 12.6875H8.99336C9.22542 12.6868 9.44784 12.5946 9.61242 12.431L12.431 9.61242C12.5946 9.44784 12.6868 9.22542 12.6875 8.99336V5.00664C12.6868 4.77458 12.5946 4.55216 12.431 4.38758ZM6.5625 4.375C6.5625 4.25897 6.60859 4.14769 6.69064 4.06564C6.77269 3.98359 6.88397 3.9375 7 3.9375C7.11603 3.9375 7.22731 3.98359 7.30936 4.06564C7.39141 4.14769 7.4375 4.25897 7.4375 4.375V7.4375C7.4375 7.55353 7.39141 7.66481 7.30936 7.74686C7.22731 7.82891 7.11603 7.875 7 7.875C6.88397 7.875 6.77269 7.82891 6.69064 7.74686C6.60859 7.66481 6.5625 7.55353 6.5625 7.4375V4.375ZM7 10.0625C6.87021 10.0625 6.74333 10.024 6.63541 9.9519C6.52749 9.87979 6.44337 9.7773 6.3937 9.65739C6.34403 9.53747 6.33104 9.40552 6.35636 9.27822C6.38168 9.15092 6.44418 9.03399 6.53596 8.94221C6.62774 8.85043 6.74467 8.78793 6.87197 8.76261C6.99927 8.73729 7.13122 8.75028 7.25114 8.79995C7.37105 8.84962 7.47354 8.93374 7.54565 9.04166C7.61776 9.14958 7.65625 9.27646 7.65625 9.40625C7.65625 9.5803 7.58711 9.74722 7.46404 9.87029C7.34097 9.99336 7.17405 10.0625 7 10.0625Z"
    fill="#FCBABA" />
</svg>