<svg width="12" height="11" viewBox="0 0 12 11" fill="none" xmlns="http://www.w3.org/2000/svg">
<path d="M5.7428 8.34725C5.79524 8.39951 5.83685 8.46161 5.86524 8.52998C5.89363 8.59835 5.90825 8.67166 5.90825 8.74569C5.90825 8.81972 5.89363 8.89303 5.86524 8.9614C5.83685 9.02977 5.79524 9.09187 5.7428 9.14413L5.5028 9.38413C5.24803 9.63984 4.9451 9.84251 4.61152 9.98041C4.27794 10.1183 3.92033 10.1887 3.55936 10.1876C3.01577 10.1877 2.48434 10.0267 2.0323 9.72475C1.58026 9.42283 1.22793 8.99362 1.01988 8.49141C0.811836 7.98921 0.757419 7.43658 0.863517 6.90344C0.969615 6.3703 1.23146 5.88061 1.61593 5.49631L3.24483 3.86741C3.5913 3.52099 4.02407 3.27347 4.49832 3.15048C4.97258 3.02749 5.47109 3.03349 5.94225 3.16787C6.41341 3.30225 6.84008 3.56011 7.17811 3.91477C7.51614 4.26944 7.75323 4.708 7.86483 5.18506C7.88332 5.2576 7.88714 5.3331 7.87607 5.40713C7.86501 5.48116 7.83927 5.55224 7.80039 5.6162C7.7615 5.68015 7.71024 5.73571 7.6496 5.7796C7.58897 5.8235 7.52019 5.85485 7.44728 5.87182C7.37438 5.88879 7.29882 5.89104 7.22503 5.87843C7.15125 5.86583 7.08072 5.83862 7.01758 5.79841C6.95445 5.7582 6.89997 5.7058 6.85735 5.64426C6.81473 5.58273 6.78481 5.51331 6.76936 5.44006C6.70314 5.15845 6.5629 4.89964 6.36314 4.69038C6.16339 4.48113 5.91137 4.32902 5.63314 4.24978C5.35491 4.17055 5.06056 4.16706 4.78054 4.23969C4.50051 4.31231 4.24496 4.45841 4.0403 4.66288L2.4114 6.29178C2.18434 6.51866 2.02966 6.80777 1.96692 7.12255C1.90418 7.43734 1.9362 7.76366 2.05893 8.06025C2.18166 8.35684 2.38959 8.61037 2.65641 8.78878C2.92324 8.96719 3.23698 9.06247 3.55796 9.06256C3.77123 9.06316 3.9825 9.02146 4.17955 8.93988C4.37659 8.85829 4.5555 8.73844 4.70593 8.58725L4.94546 8.34725C4.99772 8.29474 5.05985 8.25307 5.12827 8.22464C5.19668 8.19621 5.27004 8.18157 5.34413 8.18157C5.41822 8.18157 5.49158 8.19621 5.55999 8.22464C5.62841 8.25307 5.69054 8.29474 5.7428 8.34725ZM10.8826 1.61741C10.3671 1.10202 9.66796 0.8125 8.93897 0.8125C8.20999 0.8125 7.51085 1.10202 6.9953 1.61741L6.75577 1.85694C6.6501 1.96261 6.59073 2.10593 6.59073 2.25538C6.59073 2.40482 6.6501 2.54814 6.75577 2.65381C6.86144 2.75949 7.00477 2.81885 7.15421 2.81885C7.30365 2.81885 7.44697 2.75949 7.55265 2.65381L7.79265 2.41381C8.09723 2.10923 8.51034 1.93812 8.94108 1.93812C9.37183 1.93812 9.78494 2.10923 10.0895 2.41381C10.3941 2.7184 10.5652 3.1315 10.5652 3.56225C10.5652 3.993 10.3941 4.4061 10.0895 4.71069L8.4578 6.33725C8.30741 6.48848 8.12851 6.60836 7.93145 6.68995C7.7344 6.77154 7.52311 6.81322 7.30983 6.81256C6.94397 6.8123 6.58893 6.68846 6.30228 6.46111C6.01563 6.23377 5.81418 5.91625 5.73061 5.56006C5.6968 5.41473 5.60664 5.28879 5.47996 5.20994C5.35329 5.13108 5.20048 5.10578 5.05515 5.1396C4.90982 5.17341 4.78387 5.26357 4.70502 5.39025C4.62616 5.51692 4.60086 5.66973 4.63468 5.81506C4.77582 6.41829 5.1166 6.95614 5.60175 7.3414C6.0869 7.72667 6.68798 7.93674 7.30749 7.93756H7.30983C7.67097 7.93855 8.02871 7.86793 8.36237 7.72978C8.69604 7.59163 8.999 7.3887 9.25374 7.13272L10.8826 5.50381C11.1379 5.24865 11.3403 4.94571 11.4784 4.61229C11.6166 4.27887 11.6877 3.92151 11.6877 3.56061C11.6877 3.19971 11.6166 2.84235 11.4784 2.50893C11.3403 2.17552 11.1379 1.87257 10.8826 1.61741Z" fill="black"/>
</svg>
