<svg width="11" height="10" viewBox="0 0 11 10" fill="none" xmlns="http://www.w3.org/2000/svg">
<path d="M10.0153 2.14028L8.61371 3.54184C8.33059 6.82403 5.56262 9.37497 2.24996 9.37497C1.56934 9.37497 1.00824 9.26716 0.58215 9.05434C0.238556 8.88231 0.097931 8.69809 0.0627748 8.64559C0.0314268 8.59858 0.0111081 8.54509 0.00333701 8.48912C-0.00443412 8.43316 0.000543292 8.37616 0.0178971 8.32238C0.0352509 8.26861 0.0645325 8.21945 0.103554 8.17858C0.142576 8.13771 0.190328 8.10619 0.243243 8.08637C0.255431 8.08169 1.37949 7.64997 2.0934 6.82825C1.69749 6.50274 1.35187 6.12048 1.06777 5.69387C0.486525 4.83091 -0.1641 3.33184 0.0365247 1.09169C0.0428839 1.02051 0.0694506 0.952623 0.113096 0.896033C0.156742 0.839444 0.215649 0.796505 0.28288 0.772272C0.350111 0.748039 0.422867 0.743522 0.49258 0.759253C0.562292 0.774983 0.626058 0.810306 0.676369 0.861062C0.692775 0.877468 2.23637 2.41262 4.12356 2.91044V2.62497C4.12284 2.32562 4.18202 2.02916 4.29762 1.75303C4.41323 1.47691 4.58291 1.2267 4.79668 1.01716C5.00429 0.80984 5.25132 0.646206 5.52319 0.535911C5.79507 0.425615 6.08628 0.370891 6.37965 0.374968C6.77319 0.37885 7.15904 0.484493 7.49967 0.681627C7.8403 0.87876 8.12413 1.16068 8.32356 1.49997H9.74996C9.82417 1.49991 9.89673 1.52187 9.95846 1.56307C10.0202 1.60427 10.0683 1.66286 10.0967 1.73142C10.1251 1.79998 10.1325 1.87543 10.118 1.94821C10.1035 2.02099 10.0678 2.08783 10.0153 2.14028Z" fill="black"/>
</svg>
