<svg width="8" height="8" viewBox="0 0 8 8" fill="none" xmlns="http://www.w3.org/2000/svg">
  <path
    d="M7.2499 3.75001C7.24891 2.88838 6.90619 2.06231 6.29692 1.45305C5.68765 0.843777 4.86159 0.501054 3.99995 0.500061C3.13831 0.501054 2.31225 0.843777 1.70298 1.45305C1.09372 2.06231 0.750992 2.88838 0.75 3.75001C0.750085 3.7888 0.759192 3.82703 0.776602 3.86169C0.794012 3.89634 0.819247 3.92647 0.850311 3.9497L3.74995 6.12498V6.74997H3.49996C3.43366 6.74997 3.37007 6.7763 3.32318 6.82319C3.2763 6.87007 3.24996 6.93366 3.24996 6.99996C3.24996 7.06627 3.2763 7.12985 3.32318 7.17674C3.37007 7.22362 3.43366 7.24996 3.49996 7.24996H4.49994C4.56625 7.24996 4.62983 7.22362 4.67672 7.17674C4.7236 7.12985 4.74994 7.06627 4.74994 6.99996C4.74994 6.93366 4.7236 6.87007 4.67672 6.82319C4.62983 6.7763 4.56625 6.74997 4.49994 6.74997H4.24995V6.12498L7.1499 3.95001C7.18095 3.92672 7.20615 3.89653 7.22351 3.86181C7.24086 3.8271 7.2499 3.78882 7.2499 3.75001ZM6.73866 3.50002H5.49462C5.44649 2.3141 5.05993 1.54911 4.70994 1.0938C5.25326 1.23988 5.73886 1.54873 6.10152 1.97887C6.46417 2.409 6.68651 2.93982 6.73866 3.50002ZM4.82494 4.00001L3.99995 5.4853L3.17496 4.00001H4.82494ZM2.60278 4.00001L3.21215 5.09655L1.74998 4.00001H2.60278ZM5.39712 4.00001H6.24992L4.78775 5.09655L5.39712 4.00001ZM3.28996 1.0938C2.93997 1.54911 2.55341 2.3141 2.50529 3.50002H1.26124C1.31339 2.93982 1.53573 2.409 1.89838 1.97887C2.26104 1.54873 2.74664 1.23988 3.28996 1.0938Z"
    fill="#FFFFFF" />
</svg>