<svg width="180" height="180" viewBox="0 0 180 180" fill="none" xmlns="http://www.w3.org/2000/svg">
  <path fill-rule="evenodd" clip-rule="evenodd"
    d="M130.639 66.6997L128.429 59.9316C128.014 58.5503 126.909 57.5144 125.528 57.031L118.76 54.9591C117.793 54.6828 117.793 53.3707 118.76 53.0253L125.528 50.8153C126.909 50.401 127.945 49.296 128.429 47.9147L130.5 41.1466C130.777 40.1797 132.089 40.1797 132.434 41.1466L134.644 47.9147C135.059 49.296 136.164 50.3319 137.545 50.8153L144.313 52.8872C145.28 53.1635 145.28 54.4757 144.313 54.821L137.545 57.031C136.164 57.4453 135.128 58.5503 134.644 59.9316L132.572 66.6997C132.227 67.5975 130.915 67.5975 130.639 66.6997Z"
    fill="black" />
  <path fill-rule="evenodd" clip-rule="evenodd"
    d="M10.9534 88.4547C13.0253 84.38 17.0999 81.2722 21.3818 79.3385C25.6637 77.4047 30.3599 76.2307 34.9871 75.8853C44.3106 75.0566 53.4268 76.576 61.7143 79.3385C65.9962 80.6507 69.7946 82.3772 73.7312 84.1728C75.6649 85.0707 77.4605 86.1756 79.3252 87.2116L84.4358 90.1813C90.099 93.6344 95.5549 96.7422 100.665 99.1594C105.845 101.508 110.472 103.165 114.823 103.994C119.174 104.823 123.663 104.823 129.119 103.579C134.575 102.336 140.653 99.6428 147.075 96.2588C153.498 92.8056 160.128 88.5928 167.656 84.5182C166.896 93.0819 164.479 101.162 160.75 108.966C156.882 116.632 151.495 124.16 143.691 130.237C136.025 136.384 125.459 140.597 114.754 141.287C103.98 142.047 93.8283 139.63 85.1265 136.039C76.4246 132.378 68.8277 127.613 62.1977 122.364C60.333 120.914 59.3662 120.085 57.9849 118.911L54.1865 115.527C51.6312 113.524 49.1449 111.107 46.5896 109.104C41.5481 104.684 36.5065 100.403 30.9815 96.7422C28.219 94.8775 25.3874 93.0819 22.1415 91.5625C20.5531 90.8028 18.8265 90.1122 16.9618 89.5597C15.0971 88.9381 13.2325 88.5928 10.9534 88.4547Z"
    fill="black" />
  <path fill-rule="evenodd" clip-rule="evenodd"
    d="M10.9534 88.5931C11.9893 79.8222 16.064 71.6038 22.6249 64.6285C29.1168 57.7222 39.3381 52.3354 50.5952 51.6447C56.1893 51.2994 61.8524 51.921 67.0321 53.3022C72.2118 54.7525 77.0462 56.8244 81.4661 59.3107C83.6761 60.5538 85.679 61.935 87.7508 63.2472L93.2068 67.391L101.701 74.09C107.226 78.441 112.475 82.5157 117.31 85.8997C122.213 89.2838 126.357 91.701 130.362 93.1513C134.299 94.7397 139.271 95.085 145.901 93.4275C149.147 92.6678 152.6 91.2866 156.261 89.7672C159.852 88.2478 163.65 86.3832 167.794 84.5875C167.311 89.0075 166.413 93.3585 164.686 97.5022C163.029 101.646 160.888 105.721 157.918 109.519C156.399 111.384 154.741 113.248 152.808 114.906C150.874 116.563 148.733 118.152 146.385 119.533C141.689 122.227 136.095 124.229 130.362 124.989C124.63 125.68 118.898 125.334 113.649 124.229C108.401 123.124 103.635 121.398 99.2152 119.395C90.4443 115.32 83.1236 110.21 76.6318 104.754C73.3858 102.06 70.3471 99.2288 67.4465 96.3281L64.0624 92.875C63.0265 91.9081 61.9905 90.8722 60.9546 89.9744C56.8109 86.3141 52.9434 83.4825 48.7305 81.756C44.5177 79.8913 39.1309 79.2007 32.5009 80.4438C25.8709 81.756 18.6884 84.5875 10.9534 88.5931Z"
    fill="black" />
  <path fill-rule="evenodd" clip-rule="evenodd"
    d="M46.1752 133.691C46.1752 136.384 44.0343 138.525 41.3408 138.525C38.6474 138.525 36.5065 136.384 36.5065 133.691C36.5065 130.997 38.6474 128.856 41.3408 128.856C44.0343 128.856 46.1752 130.997 46.1752 133.691Z"
    fill="black" />
  <path fill-rule="evenodd" clip-rule="evenodd"
    d="M46.1752 133.691C46.1752 136.384 44.0343 138.525 41.3408 138.525C38.6474 138.525 36.5065 136.384 36.5065 133.691C36.5065 130.997 38.6474 128.856 41.3408 128.856C44.0343 128.856 46.1752 130.997 46.1752 133.691Z"
    fill="black" />
</svg>