<svg width="80" height="28" viewBox="0 0 70" fill="none" xmlns="http://www.w3.org/2000/svg">
  <g clip-path="url(#clip0_326_1531)">
    <path
      d="M7.47721 22.0458C5.3924 22.0458 3.68847 21.3509 2.36542 19.961C1.05572 18.5577 0.400879 16.7736 0.400879 14.6086C0.400879 12.4437 1.04904 10.6528 2.34537 9.23621C3.64169 7.81963 5.34562 7.11133 7.45717 7.11133C9.08763 7.11133 10.4508 7.5323 11.5466 8.37423C12.7895 9.30971 13.5045 10.6261 13.6916 12.3234H10.1433C10.0498 11.6685 9.76248 11.1273 9.28135 10.6996C8.80023 10.272 8.18553 10.0581 7.43712 10.0581C6.31453 10.0581 5.45922 10.4791 4.8712 11.3211C4.29654 12.1497 4.00921 13.2455 4.00921 14.6086C4.00921 15.945 4.32326 17.0343 4.95138 17.8762C5.5795 18.7181 6.41476 19.1391 7.45717 19.1391C8.23225 19.1391 8.86705 18.9186 9.36153 18.4776C9.86943 18.0366 10.1634 17.4619 10.2436 16.7536H13.7918C13.6849 18.1969 13.1102 19.4197 12.0678 20.4221C10.9452 21.5046 9.415 22.0458 7.47721 22.0458ZM17.8842 21.9857C16.8285 21.9857 15.9798 21.7117 15.3384 21.1638C14.6968 20.6158 14.3761 19.8474 14.3761 18.8584C14.3761 17.8161 14.7236 17.061 15.4185 16.5932C16.1135 16.1121 17.0757 15.7914 18.3052 15.631C19.3075 15.5107 19.989 15.3771 20.3499 15.2301C20.7241 15.0697 20.9112 14.8224 20.9112 14.4884C20.9112 13.7533 20.4435 13.3858 19.508 13.3858C18.5056 13.3858 17.9511 13.8268 17.8441 14.7089H14.8371C14.8773 13.6932 15.2916 12.8512 16.08 12.183C16.8819 11.5149 18.0178 11.1807 19.4879 11.1807C20.958 11.1807 22.0672 11.4614 22.8156 12.0227C23.6843 12.6508 24.1186 13.6263 24.1186 14.9494V20.1213C24.1186 20.9366 24.2388 21.4244 24.4794 21.5847V21.7251H21.3121C21.1785 21.5379 21.0649 21.1571 20.9713 20.5824H20.9313C20.2764 21.5179 19.2607 21.9857 17.8842 21.9857ZM18.9266 19.9008C19.5414 19.9008 20.0358 19.7338 20.41 19.3997C20.7976 19.0522 20.9914 18.6045 20.9914 18.0566V16.8338C20.6706 16.9941 20.1093 17.1746 19.3075 17.375C18.6526 17.5221 18.1916 17.6958 17.9243 17.8962C17.657 18.0967 17.5233 18.384 17.5233 18.7582C17.5233 19.52 17.9911 19.9008 18.9266 19.9008ZM25.7025 21.7251V11.4614H28.8298V13.0651H28.8899C29.5848 11.889 30.5203 11.301 31.6964 11.301C32.0037 11.301 32.2176 11.3277 32.3379 11.3812V14.1876H32.2577C31.242 14.0406 30.4401 14.2211 29.8521 14.7289C29.2641 15.2234 28.9701 16.0185 28.9701 17.1144V21.7251H25.7025ZM33.3765 21.7251V11.4614H36.5037V12.9248H36.5639C37.2722 11.7487 38.3079 11.1607 39.6711 11.1607C41.0208 11.1607 41.983 11.7621 42.5577 12.9648H42.5978C43.3729 11.7621 44.4487 11.1607 45.8253 11.1607C46.9612 11.1607 47.8232 11.5149 48.4112 12.2232C49.0126 12.918 49.3133 13.8603 49.3133 15.0497V21.7251H46.0458V15.631C46.0458 14.4683 45.5646 13.887 44.6025 13.887C44.0946 13.887 43.6937 14.0808 43.3997 14.4683C43.119 14.8425 42.9787 15.3437 42.9787 15.9718V21.7251H39.7111V15.631C39.7111 14.4683 39.2301 13.887 38.2678 13.887C37.76 13.887 37.359 14.0808 37.065 14.4683C36.7844 14.8425 36.6441 15.3437 36.6441 15.9718V21.7251H33.3765ZM50.7996 21.7251V11.4614H54.0671V21.7251H50.7996ZM50.7996 10.0381V7.39198H54.0671V10.0381H50.7996ZM55.6349 21.7251V11.4614H58.7822V12.8646H58.8423C59.6308 11.7287 60.6866 11.1607 62.0097 11.1607C63.1188 11.1607 63.9876 11.5215 64.6156 12.2432C65.2572 12.9515 65.5779 13.887 65.5779 15.0497V21.7251H62.3103V15.7112C62.3103 15.1499 62.17 14.7089 61.8894 14.3881C61.6221 14.0541 61.2279 13.887 60.7066 13.887C60.1721 13.887 59.7377 14.0874 59.4036 14.4884C59.0695 14.8893 58.9025 15.4105 58.9025 16.052V21.7251H55.6349ZM72.0791 22.0257C70.422 22.0257 69.0922 21.5179 68.0899 20.5023C67.101 19.4732 66.6065 18.1635 66.6065 16.5732C66.6065 15.0229 67.0943 13.7333 68.0699 12.7042C69.0588 11.6752 70.3284 11.1607 71.8787 11.1607C73.2819 11.1607 74.4513 11.5884 75.387 12.4437C76.6162 13.5663 77.2177 15.2301 77.1907 17.4351H69.8139C69.9208 18.1434 70.168 18.6981 70.5556 19.099C70.9431 19.4865 71.4644 19.6803 72.1192 19.6803C72.9612 19.6803 73.5291 19.3395 73.8231 18.658H77.0107C76.77 19.647 76.1955 20.4555 75.2865 21.0836C74.3911 21.7117 73.322 22.0257 72.0791 22.0257ZM69.834 15.4907H73.8833C73.8298 14.8759 73.6227 14.3881 73.2618 14.0273C72.9144 13.6665 72.4734 13.486 71.9388 13.486C70.7761 13.486 70.0745 14.1543 69.834 15.4907Z"
      fill="white" />
    <path d="M0 1.9627V3.3502H76.05H76.5V1.9627V0.575195H76.05H0V1.9627Z" fill="white" />
  </g>
  <defs>
    <clipPath id="clip0_326_1531">
      <rect width="153" height="27" fill="white" transform="translate(0 0.5)" />
    </clipPath>
  </defs>
</svg>