<svg width="43" height="28" viewBox="0 0 43 28" fill="none" xmlns="http://www.w3.org/2000/svg">
<path d="M7 9.75C7 9.55222 7.05865 9.35888 7.16853 9.19443C7.27841 9.02998 7.43459 8.90181 7.61732 8.82612C7.80004 8.75043 8.00111 8.73063 8.19509 8.76922C8.38907 8.8078 8.56725 8.90304 8.70711 9.04289C8.84696 9.18275 8.9422 9.36093 8.98079 9.55491C9.01937 9.74889 8.99957 9.94996 8.92388 10.1327C8.84819 10.3154 8.72002 10.4716 8.55557 10.5815C8.39112 10.6914 8.19778 10.75 8 10.75C7.73478 10.75 7.48043 10.6446 7.29289 10.4571C7.10536 10.2696 7 10.0152 7 9.75ZM8 13C7.80222 13 7.60888 13.0586 7.44443 13.1685C7.27998 13.2784 7.15181 13.4346 7.07612 13.6173C7.00043 13.8 6.98063 14.0011 7.01922 14.1951C7.0578 14.3891 7.15304 14.5673 7.29289 14.7071C7.43275 14.847 7.61093 14.9422 7.80491 14.9808C7.99889 15.0194 8.19996 14.9996 8.38268 14.9239C8.56541 14.8482 8.72159 14.72 8.83147 14.5556C8.94135 14.3911 9 14.1978 9 14C9 13.7348 8.89464 13.4804 8.70711 13.2929C8.51957 13.1054 8.26522 13 8 13ZM8 17.25C7.80222 17.25 7.60888 17.3087 7.44443 17.4185C7.27998 17.5284 7.15181 17.6846 7.07612 17.8673C7.00043 18.05 6.98063 18.2511 7.01922 18.4451C7.0578 18.6391 7.15304 18.8173 7.29289 18.9571C7.43275 19.097 7.61093 19.1922 7.80491 19.2308C7.99889 19.2694 8.19996 19.2496 8.38268 19.1739C8.56541 19.0982 8.72159 18.97 8.83147 18.8056C8.94135 18.6411 9 18.4478 9 18.25C9 17.9848 8.89464 17.7304 8.70711 17.5429C8.51957 17.3554 8.26522 17.25 8 17.25Z" fill="white"/>
<g clip-path="url(#clip0_11_3253)">
<path d="M35.4688 22.0907C33.3723 22.0907 31.6589 21.3919 30.3284 19.9942C29.0114 18.5831 28.3529 16.7891 28.3529 14.6119C28.3529 12.4349 29.0047 10.634 30.3083 9.20953C31.6118 7.78504 33.3253 7.07278 35.4486 7.07278C37.0882 7.07278 38.4589 7.49611 39.5609 8.34274C40.8107 9.28344 41.5297 10.6072 41.7179 12.3139H38.1498C38.0557 11.6554 37.7668 11.1111 37.283 10.6811C36.7992 10.2511 36.181 10.0361 35.4285 10.0361C34.2996 10.0361 33.4395 10.4594 32.8482 11.306C32.2703 12.1393 31.9814 13.2412 31.9814 14.6119C31.9814 15.9558 32.2972 17.0511 32.9288 17.8978C33.5605 18.7444 34.4004 19.1677 35.4486 19.1677C36.228 19.1677 36.8664 18.946 37.3636 18.5025C37.8744 18.059 38.17 17.4812 38.2506 16.7689H41.8186C41.7111 18.2203 41.1332 19.4499 40.085 20.4579C38.9562 21.5464 37.4174 22.0907 35.4688 22.0907Z" fill="white"/>
<path d="M27.9497 1.89525V3.2905H32.4246H42.8994V1.89525V0.5H32.4246H27.9497V1.89525Z" fill="white"/>
</g>
<defs>
<clipPath id="clip0_11_3253">
<rect width="15" height="27" fill="white" transform="translate(28 0.5)"/>
</clipPath>
</defs>
</svg>
