<svg width="180" height="180" viewBox="0 0 180 180" fill="none" xmlns="http://www.w3.org/2000/svg">
  <path
    d="M147.637 74.6088C150.049 58.4825 137.771 49.8141 120.983 44.0314L126.429 22.187L113.132 18.8736L107.83 40.1428C104.334 39.271 100.744 38.4494 97.176 37.635L102.516 16.2254L89.2272 12.912L83.778 34.7493C80.8851 34.0906 78.0438 33.4397 75.2872 32.7538L75.3026 32.6851L56.9653 28.1059L53.428 42.3083C53.428 42.3083 63.2935 44.5698 63.0856 44.709C68.4703 46.0529 69.4441 49.6174 69.2824 52.4428L63.0785 77.3287C63.4493 77.4228 63.9302 77.5591 64.461 77.7723C64.0173 77.6621 63.5452 77.5419 63.0554 77.4246L54.3597 112.286C53.7016 113.922 52.0313 116.377 48.2666 115.445C48.3999 115.638 38.6019 113.033 38.6019 113.033L32 128.254L49.3043 132.568C52.5235 133.375 55.6782 134.22 58.7849 135.014L53.2823 157.109L66.5643 160.423L72.0135 138.562C75.642 139.547 79.1633 140.456 82.6105 141.312L77.1796 163.07L90.4776 166.383L95.9795 144.33C118.654 148.621 135.704 146.891 142.88 126.381C148.663 109.869 142.593 100.345 130.663 94.1337C139.352 92.1299 145.896 86.4153 147.641 74.6105L147.637 74.6076L147.637 74.6088ZM117.255 117.211C113.146 133.724 85.344 124.798 76.3303 122.559L83.6323 93.2873C92.6454 95.5374 121.55 99.9904 117.256 117.211H117.255ZM121.368 74.3695C117.619 89.3893 94.4792 81.7585 86.9729 79.8874L93.5931 53.3395C101.099 55.2106 125.273 58.7029 121.369 74.3695H121.368Z" />
</svg>