<?xml version="1.0" standalone="no"?>
<!DOCTYPE svg PUBLIC "-//W3C//DTD SVG 20010904//EN" "http://www.w3.org/TR/2001/REC-SVG-20010904/DTD/svg10.dtd">
<svg version="1.0" xmlns="http://www.w3.org/2000/svg"
  width="64.000000pt" height="64.000000pt" viewBox="0 0 64.000000 64.000000"
  preserveAspectRatio="xMidYMid meet">

  <g transform="translate(0.000000,64.000000) scale(0.100000,-0.100000)"
    fill="#ffffff" stroke="none">
    <path
      d="M223 622 c-108 -39 -178 -112 -210 -221 -41 -144 34 -303 176 -370
46 -21 71 -26 136 -26 73 0 86 3 145 36 151 83 209 255 138 410 -67 147 -239
223 -385 171z m251 -203 c24 -19 26 -26 26 -95 0 -66 -3 -78 -25 -99 -23 -24
-29 -25 -153 -25 -116 0 -132 2 -156 21 -24 19 -26 26 -26 97 0 42 4 82 8 88
18 27 53 33 173 34 113 0 129 -2 153 -21z" />
    <path
      d="M202 367 c-28 -30 -28 -68 1 -95 32 -30 71 -28 96 4 l21 27 21 -27
c26 -33 68 -34 97 -3 28 30 28 68 -1 95 -32 30 -71 28 -96 -4 l-21 -27 -21 27
c-26 33 -68 34 -97 3z" />
  </g>
</svg>