<svg width="153" height="28" viewBox="0 0 153 28" fill="none" xmlns="http://www.w3.org/2000/svg">
<g clip-path="url(#clip0_33_4206)">
<path d="M7.51907 22.0907C5.42261 22.0907 3.70915 21.3919 2.37871 19.9942C1.0617 18.5831 0.403198 16.789 0.403198 14.6119C0.403198 12.4349 1.05498 10.634 2.35855 9.2095C3.66212 7.78501 5.37557 7.07275 7.49891 7.07275C9.13848 7.07275 10.5092 7.49608 11.6112 8.34271C12.861 9.28341 13.58 10.6072 13.7681 12.3139H10.2001C10.106 11.6554 9.8171 11.1111 9.33329 10.6811C8.84947 10.251 8.23134 10.036 7.47875 10.036C6.34988 10.036 5.4898 10.4593 4.89849 11.306C4.32062 12.1392 4.03168 13.2412 4.03168 14.6119C4.03168 15.9558 4.34749 17.0511 4.97912 17.8978C5.61075 18.7444 6.45067 19.1677 7.49891 19.1677C8.27832 19.1677 8.91667 18.9459 9.41391 18.5025C9.92465 18.059 10.2203 17.4812 10.3009 16.7689H13.8689C13.7614 18.2203 13.1835 19.4499 12.1353 20.4579C11.0065 21.5464 9.46768 22.0907 7.51907 22.0907ZM17.9842 22.0302C16.9225 22.0302 16.0692 21.7547 15.4241 21.2037C14.779 20.6527 14.4565 19.8799 14.4565 18.8855C14.4565 17.8373 14.8059 17.078 15.5047 16.6076C16.2036 16.1238 17.1711 15.8013 18.4075 15.64C19.4154 15.5191 20.1008 15.3847 20.4636 15.2368C20.84 15.0756 21.0281 14.8269 21.0281 14.491C21.0281 13.7518 20.5577 13.3823 19.617 13.3823C18.6091 13.3823 18.0514 13.8257 17.9439 14.7128H14.9201C14.9604 13.6914 15.3771 12.8447 16.1699 12.1728C16.9762 11.5009 18.1185 11.1649 19.5968 11.1649C21.0751 11.1649 22.1906 11.4471 22.9431 12.0115C23.8167 12.6432 24.2534 13.6242 24.2534 14.9546V20.1554C24.2534 20.9752 24.3743 21.4658 24.6163 21.627V21.7681H21.4312C21.2969 21.58 21.1827 21.197 21.0885 20.6191H21.0483C20.3897 21.5598 19.3684 22.0302 17.9842 22.0302ZM19.0324 19.9337C19.6506 19.9337 20.1478 19.7657 20.5241 19.4298C20.9139 19.0803 21.1088 18.6302 21.1088 18.0792V16.8495C20.7862 17.0108 20.2218 17.1922 19.4154 17.3937C18.7569 17.5416 18.2933 17.7163 18.0245 17.9179C17.7557 18.1195 17.6213 18.4084 17.6213 18.7847C17.6213 19.5507 18.0917 19.9337 19.0324 19.9337ZM25.8462 21.7681V11.4471H28.9909V13.0598H29.0514C29.7502 11.8771 30.6909 11.2859 31.8735 11.2859C32.1826 11.2859 32.3976 11.3127 32.5186 11.3665V14.1886H32.438C31.4166 14.0408 30.6103 14.2222 30.019 14.7329C29.4277 15.2301 29.1321 16.0297 29.1321 17.1317V21.7681H25.8462ZM33.5631 21.7681V11.4471H36.7077V12.9187H36.7682C37.4805 11.736 38.522 11.1448 39.8928 11.1448C41.2501 11.1448 42.2176 11.7495 42.7956 12.959H42.8358C43.6153 11.7495 44.6971 11.1448 46.0813 11.1448C47.2236 11.1448 48.0904 11.5009 48.6817 12.2131C49.2865 12.9119 49.5889 13.8594 49.5889 15.0555V21.7681H46.3031V15.64C46.3031 14.4708 45.8193 13.8862 44.8517 13.8862C44.341 13.8862 43.9379 14.0811 43.6422 14.4708C43.36 14.8471 43.2189 15.3511 43.2189 15.9827V21.7681H39.933V15.64C39.933 14.4708 39.4493 13.8862 38.4817 13.8862C37.971 13.8862 37.5678 14.0811 37.2722 14.4708C36.99 14.8471 36.8489 15.3511 36.8489 15.9827V21.7681H33.5631ZM51.0834 21.7681V11.4471H54.3692V21.7681H51.0834ZM51.0834 10.0159V7.35497H54.3692V10.0159H51.0834ZM55.9458 21.7681V11.4471H59.1107V12.8582H59.1711C59.964 11.7159 61.0257 11.1448 62.3562 11.1448C63.4715 11.1448 64.3451 11.5076 64.9767 12.2333C65.6218 12.9455 65.9443 13.8862 65.9443 15.0555V21.7681H62.6585V15.7207C62.6585 15.1562 62.5174 14.7128 62.2352 14.3902C61.9664 14.0543 61.57 13.8862 61.0458 13.8862C60.5083 13.8862 60.0715 14.0878 59.7356 14.491C59.3996 14.8941 59.2316 15.4183 59.2316 16.0634V21.7681H55.9458ZM72.4818 22.0705C70.8155 22.0705 69.4783 21.5598 68.4704 20.5385C67.4759 19.5037 66.9787 18.1867 66.9787 16.5874C66.9787 15.0285 67.4692 13.7317 68.4502 12.6969C69.4447 11.6621 70.7214 11.1448 72.2803 11.1448C73.6913 11.1448 74.8673 11.5748 75.8082 12.4349C77.0443 13.5637 77.6492 15.2368 77.622 17.4542H70.204C70.3115 18.1665 70.5601 18.7242 70.9499 19.1274C71.3395 19.5171 71.8637 19.712 72.5222 19.712C73.3689 19.712 73.94 19.3693 74.2356 18.6839H77.441C77.1989 19.6784 76.6212 20.4914 75.7071 21.1231C74.8068 21.7547 73.7317 22.0705 72.4818 22.0705ZM70.2242 15.4989H74.2961C74.2423 14.8807 74.034 14.3902 73.6712 14.0273C73.3218 13.6645 72.8783 13.483 72.3407 13.483C71.1716 13.483 70.466 14.155 70.2242 15.4989ZM88.6053 19.208C89.7343 19.208 90.5941 18.7847 91.1854 17.938C91.7902 17.078 92.0927 15.9625 92.0927 14.5918C92.0927 13.221 91.7902 12.1056 91.1854 11.2455C90.5941 10.3854 89.7343 9.9554 88.6053 9.9554C87.4898 9.9554 86.6233 10.3854 86.0048 11.2455C85.4 12.1056 85.0975 13.221 85.0975 14.5918C85.0975 15.9491 85.4 17.0578 86.0048 17.9179C86.6233 18.778 87.4898 19.208 88.6053 19.208ZM93.7662 19.9942C92.4622 21.4053 90.7351 22.1108 88.5849 22.1108C86.4347 22.1108 84.7084 21.4053 83.4044 19.9942C82.1147 18.5831 81.4691 16.7823 81.4691 14.5918C81.4691 12.4012 82.1147 10.6005 83.4044 9.18937C84.7084 7.77829 86.4347 7.07275 88.5849 7.07275C90.7351 7.07275 92.4622 7.77829 93.7662 9.18937C95.0695 10.6005 95.7211 12.4012 95.7211 14.5918C95.7211 16.7823 95.0695 18.5831 93.7662 19.9942ZM96.9119 25.1749V11.4471H100.057V12.6969H100.117C100.91 11.6621 101.951 11.1448 103.242 11.1448C104.586 11.1448 105.654 11.6621 106.447 12.6969C107.253 13.7183 107.656 15.0218 107.656 16.6076C107.656 18.274 107.247 19.6045 106.427 20.599C105.607 21.5935 104.519 22.0907 103.161 22.0907C101.898 22.0907 100.923 21.627 100.238 20.6997H100.198V25.1749H96.9119ZM102.314 19.5507C102.946 19.5507 103.436 19.3021 103.786 18.8048C104.148 18.2942 104.33 17.6021 104.33 16.7286C104.33 15.8147 104.155 15.0957 103.806 14.5716C103.457 14.0475 102.939 13.7855 102.254 13.7855C101.568 13.7855 101.037 14.061 100.661 14.6119C100.285 15.1495 100.097 15.855 100.097 16.7286C100.097 17.5752 100.291 18.2606 100.681 18.7847C101.071 19.2954 101.616 19.5507 102.314 19.5507ZM112.56 21.8891C111.512 21.8891 110.699 21.6808 110.121 21.2642C109.556 20.8341 109.274 20.095 109.274 19.0468V13.5033H107.903V11.4471H109.274V8.18147H112.479V11.4471H114.354V13.5033H112.479V18.3412C112.479 18.7175 112.573 18.9796 112.761 19.1274C112.963 19.2752 113.251 19.3491 113.628 19.3491C113.736 19.3491 113.877 19.3491 114.052 19.3491C114.226 19.3357 114.327 19.329 114.354 19.329V21.7278C113.978 21.8353 113.38 21.8891 112.56 21.8891ZM115.534 21.7681V11.4471H118.82V21.7681H115.534ZM115.534 10.0159V7.35497H118.82V10.0159H115.534ZM123.824 18.9057C124.2 19.4701 124.738 19.7523 125.437 19.7523C126.135 19.7523 126.673 19.4701 127.049 18.9057C127.439 18.3412 127.634 17.5819 127.634 16.6278C127.634 15.6736 127.439 14.9143 127.049 14.3499C126.673 13.7721 126.135 13.483 125.437 13.483C124.738 13.483 124.2 13.7653 123.824 14.3297C123.447 14.8941 123.26 15.6602 123.26 16.6278C123.26 17.5819 123.447 18.3412 123.824 18.9057ZM129.428 20.5385C128.42 21.5732 127.096 22.0907 125.457 22.0907C123.817 22.0907 122.487 21.5732 121.465 20.5385C120.444 19.5037 119.934 18.2001 119.934 16.6278C119.934 15.0555 120.444 13.7518 121.465 12.7171C122.487 11.6823 123.817 11.1649 125.457 11.1649C127.096 11.1649 128.42 11.6823 129.428 12.7171C130.449 13.7518 130.96 15.0555 130.96 16.6278C130.96 18.2001 130.449 19.5037 129.428 20.5385ZM132.071 21.7681V11.4471H135.235V12.8582H135.296C136.089 11.7159 137.151 11.1448 138.481 11.1448C139.597 11.1448 140.47 11.5076 141.101 12.2333C141.747 12.9455 142.069 13.8862 142.069 15.0555V21.7681H138.784V15.7207C138.784 15.1562 138.642 14.7128 138.36 14.3902C138.091 14.0543 137.695 13.8862 137.171 13.8862C136.634 13.8862 136.196 14.0878 135.861 14.491C135.524 14.8941 135.357 15.4183 135.357 16.0634V21.7681H132.071ZM147.962 22.0907C146.457 22.0907 145.254 21.7681 144.354 21.1231C143.467 20.4646 142.996 19.5642 142.942 18.4219H146.047C146.167 19.4432 146.799 19.9538 147.942 19.9538C148.439 19.9538 148.829 19.8665 149.111 19.6918C149.407 19.5037 149.554 19.2484 149.554 18.9258C149.554 18.8183 149.541 18.7242 149.514 18.6436C149.487 18.563 149.44 18.4891 149.373 18.4219C149.306 18.3547 149.238 18.2942 149.171 18.2404C149.118 18.1867 149.03 18.1396 148.91 18.0993C148.788 18.0456 148.681 18.0052 148.587 17.9784C148.506 17.9515 148.379 17.9246 148.204 17.8978C148.042 17.8574 147.915 17.8306 147.821 17.8171C147.726 17.7902 147.578 17.7634 147.377 17.7365C147.176 17.6962 147.028 17.6693 146.934 17.6558C146.504 17.5886 146.141 17.5214 145.845 17.4542C145.55 17.3736 145.22 17.2526 144.857 17.0914C144.508 16.9301 144.219 16.7487 143.991 16.5472C143.776 16.3321 143.594 16.0499 143.446 15.7005C143.298 15.3377 143.224 14.9211 143.224 14.4507C143.224 13.4024 143.648 12.5894 144.495 12.0115C145.341 11.4337 146.403 11.1448 147.679 11.1448C149.118 11.1448 150.233 11.4404 151.026 12.0317C151.818 12.6095 152.255 13.4159 152.336 14.4507H149.312C149.205 13.6444 148.654 13.2412 147.659 13.2412C147.229 13.2412 146.88 13.3218 146.612 13.483C146.356 13.6444 146.228 13.8795 146.228 14.1886C146.228 14.2693 146.241 14.3432 146.268 14.4104C146.296 14.4775 146.336 14.538 146.389 14.5918C146.457 14.6456 146.517 14.6925 146.571 14.7329C146.638 14.7732 146.725 14.8135 146.833 14.8539C146.94 14.8941 147.035 14.9278 147.115 14.9546C147.209 14.9815 147.33 15.0084 147.478 15.0352C147.64 15.0622 147.767 15.089 147.861 15.1159C147.968 15.1294 148.109 15.1562 148.284 15.1966C148.459 15.2234 148.6 15.2436 148.707 15.257C149.164 15.3377 149.541 15.4116 149.836 15.4788C150.132 15.5459 150.475 15.6669 150.864 15.8416C151.268 16.0029 151.583 16.1978 151.812 16.4262C152.04 16.6412 152.236 16.9436 152.397 17.3333C152.571 17.7096 152.659 18.1531 152.659 18.6637C152.659 19.7657 152.222 20.6124 151.349 21.2037C150.488 21.795 149.359 22.0907 147.962 22.0907Z" fill="white"/>
<path d="M0 1.89525V3.2905H76.4749H152.95V1.89525V0.5H76.4749H0V1.89525Z" fill="white"/>
</g>
<defs>
<clipPath id="clip0_33_4206">
<rect width="152.95" height="27" fill="white" transform="translate(0 0.5)"/>
</clipPath>
</defs>
</svg>
