<svg viewBox="0 0 15 28" fill="none" xmlns="http://www.w3.org/2000/svg">
  <g clip-path="url(#clip0_11_3254)">
    <path
      d="M7.46877 22.0907C5.37231 22.0907 3.65886 21.3919 2.32842 19.9942C1.01141 18.5831 0.352905 16.7891 0.352905 14.6119C0.352905 12.4349 1.00469 10.634 2.30826 9.20953C3.61182 7.78504 5.32527 7.07278 7.44861 7.07278C9.08818 7.07278 10.4589 7.49611 11.5609 8.34274C12.8107 9.28344 13.5297 10.6072 13.7179 12.3139H10.1498C10.0557 11.6554 9.76681 11.1111 9.28299 10.6811C8.79918 10.2511 8.18105 10.0361 7.42845 10.0361C6.29959 10.0361 5.4395 10.4594 4.8482 11.306C4.27033 12.1393 3.98139 13.2412 3.98139 14.6119C3.98139 15.9558 4.2972 17.0511 4.92883 17.8978C5.56045 18.7444 6.40038 19.1677 7.44861 19.1677C8.22803 19.1677 8.86638 18.946 9.36362 18.5025C9.87435 18.059 10.17 17.4812 10.2506 16.7689H13.8186C13.7111 18.2203 13.1332 19.4499 12.085 20.4579C10.9562 21.5464 9.41739 22.0907 7.46877 22.0907Z"
      fill="white" />
    <path d="M-0.050293 1.89525V3.2905H4.42458H14.8994V1.89525V0.5H4.42458H-0.050293V1.89525Z"
      fill="white" />
  </g>
  <defs>
    <clipPath id="clip0_11_3254">
      <rect width="15" height="27" fill="white" transform="translate(0 0.5)" />
    </clipPath>
  </defs>
</svg>