<svg width="14" height="14" viewBox="0 0 14 14" fill="none" xmlns="http://www.w3.org/2000/svg">
<path d="M11.8125 5.25005C11.813 4.43904 11.6085 3.64105 11.218 2.93022C10.8276 2.21939 10.2638 1.61876 9.57908 1.18413C8.89436 0.749494 8.11091 0.494953 7.30149 0.444146C6.49206 0.393339 5.68293 0.547914 4.94924 0.893514C4.21554 1.23911 3.58109 1.76453 3.10481 2.42096C2.62852 3.07738 2.32586 3.84353 2.22492 4.64824C2.12398 5.45295 2.22805 6.27012 2.52746 7.02384C2.82686 7.77757 3.31189 8.4434 3.9375 8.9595V13.1251C3.93745 13.1997 3.95648 13.2731 3.99278 13.3382C4.02909 13.4034 4.08146 13.4582 4.14492 13.4975C4.20838 13.5367 4.28082 13.5591 4.35536 13.5624C4.4299 13.5658 4.50406 13.55 4.57078 13.5166L7 12.3047L9.42977 13.5193C9.49068 13.5485 9.55747 13.5633 9.625 13.5626C9.74103 13.5626 9.85231 13.5165 9.93436 13.4344C10.0164 13.3524 10.0625 13.2411 10.0625 13.1251V8.9595C10.6099 8.50868 11.0507 7.94226 11.3532 7.30091C11.6558 6.65956 11.8126 5.95919 11.8125 5.25005ZM3.0625 5.25005C3.0625 4.47129 3.29343 3.71001 3.72609 3.06249C4.15875 2.41497 4.7737 1.91029 5.49318 1.61227C6.21267 1.31425 7.00437 1.23628 7.76817 1.38821C8.53197 1.54014 9.23356 1.91515 9.78423 2.46582C10.3349 3.01649 10.7099 3.71808 10.8618 4.48188C11.0138 5.24568 10.9358 6.03738 10.6378 6.75687C10.3398 7.47635 9.83508 8.0913 9.18756 8.52396C8.54004 8.95662 7.77876 9.18755 7 9.18755C5.95607 9.18639 4.95522 8.77118 4.21705 8.033C3.47887 7.29483 3.06366 6.29398 3.0625 5.25005ZM3.9375 5.25005C3.9375 4.64434 4.11711 4.05224 4.45362 3.54862C4.79014 3.04499 5.26843 2.65246 5.82803 2.42067C6.38763 2.18888 7.0034 2.12823 7.59747 2.2464C8.19153 2.36456 8.73722 2.65624 9.16551 3.08454C9.59381 3.51283 9.88549 4.05852 10.0037 4.65259C10.1218 5.24665 10.0612 5.86242 9.82938 6.42202C9.59759 6.98162 9.20506 7.45991 8.70143 7.79643C8.19781 8.13294 7.60571 8.31255 7 8.31255C6.18804 8.31168 5.40959 7.98875 4.83545 7.41461C4.2613 6.84046 3.93837 6.06201 3.9375 5.25005Z" fill="#727272"/>
</svg>
