<svg width="14" height="14" viewBox="0 0 14 14" fill="none" xmlns="http://www.w3.org/2000/svg">
<path d="M11.375 2.1875H2.625C2.39294 2.1875 2.17038 2.27969 2.00628 2.44378C1.84219 2.60788 1.75 2.83044 1.75 3.0625V6.125C1.75 9.00813 3.14562 10.7554 4.31648 11.7135C5.57758 12.7449 6.83211 13.0955 6.8868 13.1097C6.96199 13.1301 7.04129 13.1301 7.11648 13.1097C7.17117 13.0955 8.42406 12.7449 9.6868 11.7135C10.8544 10.7554 12.25 9.00813 12.25 6.125V3.0625C12.25 2.83044 12.1578 2.60788 11.9937 2.44378C11.8296 2.27969 11.6071 2.1875 11.375 2.1875ZM8.75 7.4375H7.4375V8.75C7.4375 8.86603 7.39141 8.97731 7.30936 9.05936C7.22731 9.14141 7.11603 9.1875 7 9.1875C6.88397 9.1875 6.77269 9.14141 6.69064 9.05936C6.60859 8.97731 6.5625 8.86603 6.5625 8.75V7.4375H5.25C5.13397 7.4375 5.02269 7.39141 4.94064 7.30936C4.85859 7.22731 4.8125 7.11603 4.8125 7C4.8125 6.88397 4.85859 6.77269 4.94064 6.69064C5.02269 6.60859 5.13397 6.5625 5.25 6.5625H6.5625V5.25C6.5625 5.13397 6.60859 5.02269 6.69064 4.94064C6.77269 4.85859 6.88397 4.8125 7 4.8125C7.11603 4.8125 7.22731 4.85859 7.30936 4.94064C7.39141 5.02269 7.4375 5.13397 7.4375 5.25V6.5625H8.75C8.86603 6.5625 8.97731 6.60859 9.05936 6.69064C9.14141 6.77269 9.1875 6.88397 9.1875 7C9.1875 7.11603 9.14141 7.22731 9.05936 7.30936C8.97731 7.39141 8.86603 7.4375 8.75 7.4375Z" fill="#727272"/>
</svg>
