<svg width="14" height="14" viewBox="0 0 14 14" fill="none" xmlns="http://www.w3.org/2000/svg">
<path d="M12.997 9.75295C13.0377 9.79358 13.07 9.84183 13.092 9.89494C13.114 9.94805 13.1253 10.005 13.1253 10.0625C13.1253 10.12 13.114 10.1769 13.092 10.23C13.07 10.2831 13.0377 10.3314 12.997 10.372L11.6845 11.6845C11.6233 11.7458 11.5454 11.7875 11.4604 11.8044C11.3755 11.8213 11.2875 11.8126 11.2075 11.7795C11.1275 11.7464 11.0592 11.6902 11.0111 11.6182C10.9631 11.5462 10.9374 11.4616 10.9375 11.375V10.5H9.1875C9.11786 10.5 9.04923 10.4834 8.9873 10.4515C8.92538 10.4196 8.87196 10.3734 8.83148 10.3168L4.58719 4.37498H1.75C1.63397 4.37498 1.52269 4.32888 1.44064 4.24684C1.35859 4.16479 1.3125 4.05351 1.3125 3.93748C1.3125 3.82145 1.35859 3.71017 1.44064 3.62812C1.52269 3.54607 1.63397 3.49998 1.75 3.49998H4.8125C4.88214 3.49998 4.95077 3.5166 5.0127 3.54846C5.07462 3.58033 5.12804 3.62651 5.16852 3.68318L9.41281 9.62498H10.9375V8.74998C10.9374 8.6634 10.9631 8.57875 11.0111 8.50674C11.0592 8.43473 11.1275 8.3786 11.2075 8.34546C11.2875 8.31231 11.3755 8.30365 11.4604 8.32056C11.5454 8.33747 11.6233 8.37919 11.6845 8.44045L12.997 9.75295ZM7.82031 5.85154C7.86706 5.88494 7.91994 5.9088 7.97591 5.92176C8.03188 5.93472 8.08986 5.93653 8.14654 5.92708C8.20321 5.91764 8.25747 5.89712 8.30621 5.86671C8.35495 5.83629 8.39723 5.79658 8.43062 5.74982L9.415 4.37607H10.9375V5.24998C10.9374 5.33656 10.9631 5.42121 11.0111 5.49322C11.0592 5.56523 11.1275 5.62136 11.2075 5.6545C11.2875 5.68764 11.3755 5.69631 11.4604 5.6794C11.5454 5.66249 11.6233 5.62076 11.6845 5.55951L12.997 4.24701C13.0377 4.20638 13.07 4.15813 13.092 4.10501C13.114 4.0519 13.1253 3.99497 13.1253 3.93748C13.1253 3.87998 13.114 3.82305 13.092 3.76994C13.07 3.71683 13.0377 3.66858 12.997 3.62795L11.6845 2.31545C11.6233 2.25419 11.5454 2.21247 11.4604 2.19556C11.3755 2.17865 11.2875 2.18731 11.2075 2.22046C11.1275 2.2536 11.0592 2.30973 11.0111 2.38174C10.9631 2.45375 10.9374 2.5384 10.9375 2.62498V3.49998H9.1875C9.11786 3.49998 9.04923 3.5166 8.9873 3.54846C8.92538 3.58033 8.87196 3.62651 8.83148 3.68318L7.71914 5.24013C7.68555 5.28689 7.66151 5.33982 7.64841 5.39588C7.63531 5.45194 7.63341 5.51004 7.64281 5.56684C7.65221 5.62364 7.67273 5.67803 7.70319 5.72688C7.73365 5.77574 7.77345 5.8181 7.82031 5.85154ZM6.17969 8.14842C6.13294 8.11502 6.08006 8.09116 6.02409 8.0782C5.96812 8.06524 5.91014 8.06343 5.85346 8.07287C5.79679 8.08232 5.74253 8.10283 5.69379 8.13325C5.64504 8.16366 5.60277 8.20338 5.56937 8.25013L4.58719 9.62498H1.75C1.63397 9.62498 1.52269 9.67107 1.44064 9.75312C1.35859 9.83517 1.3125 9.94645 1.3125 10.0625C1.3125 10.1785 1.35859 10.2898 1.44064 10.3718C1.52269 10.4539 1.63397 10.5 1.75 10.5H4.8125C4.88214 10.5 4.95077 10.4834 5.0127 10.4515C5.07462 10.4196 5.12804 10.3734 5.16852 10.3168L6.28086 8.75982C6.31445 8.71307 6.33849 8.66014 6.35159 8.60408C6.36468 8.54801 6.36659 8.48992 6.35719 8.43312C6.34779 8.37632 6.32727 8.32193 6.29681 8.27308C6.26635 8.22422 6.22655 8.18186 6.17969 8.14842Z" fill="#727272"/>
</svg>
