<svg width="14" height="14" viewBox="0 0 14 14" fill="none" xmlns="http://www.w3.org/2000/svg">
<path d="M5.90649 10.2812C5.90649 10.6274 5.80386 10.9657 5.61156 11.2535C5.41927 11.5413 5.14596 11.7656 4.82619 11.898C4.50642 12.0305 4.15455 12.0651 3.81509 11.9976C3.47562 11.9301 3.1638 11.7634 2.91906 11.5187C2.67431 11.2739 2.50764 10.9621 2.44012 10.6227C2.37259 10.2832 2.40725 9.93132 2.5397 9.61155C2.67216 9.29178 2.89646 9.01847 3.18425 8.82618C3.47203 8.63389 3.81038 8.53125 4.15649 8.53125C4.62062 8.53125 5.06574 8.71562 5.39393 9.04381C5.72212 9.372 5.90649 9.81712 5.90649 10.2812ZM2.93477 6.43453L3.71899 5.64977L4.50321 6.43453C4.5853 6.51662 4.69665 6.56274 4.81274 6.56274C4.92884 6.56274 5.04018 6.51662 5.12227 6.43453C5.20437 6.35244 5.25049 6.2411 5.25049 6.125C5.25049 6.0089 5.20437 5.89756 5.12227 5.81547L4.33751 5.03125L5.12227 4.24703C5.20437 4.16494 5.25049 4.0536 5.25049 3.9375C5.25049 3.8214 5.20437 3.71006 5.12227 3.62797C5.04018 3.54588 4.92884 3.49976 4.81274 3.49976C4.69665 3.49976 4.5853 3.54588 4.50321 3.62797L3.71899 4.41273L2.93477 3.62797C2.85268 3.54588 2.74134 3.49976 2.62524 3.49976C2.50915 3.49976 2.3978 3.54588 2.31571 3.62797C2.23362 3.71006 2.1875 3.8214 2.1875 3.9375C2.1875 4.0536 2.23362 4.16494 2.31571 4.24703L3.10048 5.03125L2.31571 5.81547C2.23362 5.89756 2.1875 6.0089 2.1875 6.125C2.1875 6.2411 2.23362 6.35244 2.31571 6.43453C2.3978 6.51662 2.50915 6.56274 2.62524 6.56274C2.74134 6.56274 2.85268 6.51662 2.93477 6.43453ZM11.775 10.2812L12.5598 9.49703C12.6419 9.41494 12.688 9.3036 12.688 9.1875C12.688 9.0714 12.6419 8.96006 12.5598 8.87797C12.4777 8.79588 12.3663 8.74976 12.2502 8.74976C12.1341 8.74976 12.0228 8.79588 11.9407 8.87797L11.1565 9.66273L10.3723 8.87797C10.2902 8.79588 10.1788 8.74976 10.0627 8.74976C9.94665 8.74976 9.83531 8.79588 9.75321 8.87797C9.67112 8.96006 9.625 9.0714 9.625 9.1875C9.625 9.3036 9.67112 9.41494 9.75321 9.49703L10.538 10.2812L9.75321 11.0655C9.67112 11.1476 9.625 11.2589 9.625 11.375C9.625 11.4911 9.67112 11.6024 9.75321 11.6845C9.83531 11.7666 9.94665 11.8127 10.0627 11.8127C10.1788 11.8127 10.2902 11.7666 10.3723 11.6845L11.1565 10.8998L11.9407 11.6845C11.9814 11.7252 12.0296 11.7574 12.0827 11.7794C12.1358 11.8014 12.1928 11.8127 12.2502 11.8127C12.3077 11.8127 12.3647 11.8014 12.4178 11.7794C12.4709 11.7574 12.5191 11.7252 12.5598 11.6845C12.6004 11.6439 12.6327 11.5956 12.6547 11.5425C12.6767 11.4894 12.688 11.4325 12.688 11.375C12.688 11.3175 12.6767 11.2606 12.6547 11.2075C12.6327 11.1544 12.6004 11.1061 12.5598 11.0655L11.775 10.2812ZM9.05977 2.75297L8.93126 2.625H10.0627C10.1788 2.625 10.2901 2.57891 10.3721 2.49686C10.4542 2.41481 10.5002 2.30353 10.5002 2.1875C10.5002 2.07147 10.4542 1.96019 10.3721 1.87814C10.2901 1.79609 10.1788 1.75 10.0627 1.75H7.87524C7.75921 1.75 7.64793 1.79609 7.56588 1.87814C7.48384 1.96019 7.43774 2.07147 7.43774 2.1875V4.375C7.43774 4.49103 7.48384 4.60231 7.56588 4.68436C7.64793 4.76641 7.75921 4.8125 7.87524 4.8125C7.99128 4.8125 8.10256 4.76641 8.1846 4.68436C8.26665 4.60231 8.31274 4.49103 8.31274 4.375V3.24352L8.44071 3.37203C9.42126 4.35258 9.41962 5.30797 9.24516 5.93687C8.99142 6.85398 8.18642 7.6743 7.3311 7.88813C7.22753 7.91408 7.13702 7.97702 7.07664 8.06509C7.01625 8.15315 6.99016 8.26025 7.00327 8.36622C7.01638 8.47219 7.0678 8.56971 7.14782 8.6404C7.22785 8.71109 7.33097 8.75007 7.43774 8.75C7.47369 8.74995 7.5095 8.74554 7.54438 8.73687C8.70431 8.44703 9.75102 7.39156 10.089 6.17039C10.4226 4.96453 10.0573 3.75102 9.05977 2.75297Z" fill="#727272"/>
</svg>
