<svg width="14" height="14" viewBox="0 0 14 14" fill="none" xmlns="http://www.w3.org/2000/svg">
<path d="M9.55013 4.44876C9.40441 3.66531 9.04748 2.93654 8.51786 2.34111C7.98825 1.74569 7.30606 1.30622 6.54494 1.07015C5.78382 0.834087 4.97268 0.810384 4.19908 1.0016C3.42548 1.19282 2.71879 1.5917 2.15531 2.15519C1.59183 2.71867 1.19295 3.42536 1.00173 4.19896C0.810506 4.97256 0.834209 5.7837 1.07028 6.54482C1.30634 7.30594 1.74581 7.98812 2.34124 8.51774C2.93666 9.04736 3.66543 9.40429 4.44888 9.55001C4.5946 10.3335 4.95154 11.0622 5.48115 11.6577C6.01077 12.2531 6.69296 12.6926 7.45408 12.9286C8.21519 13.1647 9.02633 13.1884 9.79994 12.9972C10.5735 12.8059 11.2802 12.4071 11.8437 11.8436C12.4072 11.2801 12.8061 10.5734 12.9973 9.79981C13.1885 9.02621 13.1648 8.21507 12.9287 7.45395C12.6927 6.69284 12.2532 6.01065 11.6578 5.48103C11.0624 4.95141 10.3336 4.59448 9.55013 4.44876ZM5.25006 8.74993C4.55782 8.74993 3.88113 8.54466 3.30556 8.16008C2.72999 7.77549 2.28138 7.22887 2.01648 6.58933C1.75157 5.94978 1.68226 5.24605 1.81731 4.56712C1.95236 3.88818 2.2857 3.26454 2.77518 2.77506C3.26467 2.28558 3.88831 1.95223 4.56724 1.81718C5.24617 1.68214 5.94991 1.75145 6.58945 2.01636C7.22899 2.28126 7.77561 2.72987 8.1602 3.30544C8.54478 3.88101 8.75006 4.5577 8.75006 5.24993C8.74904 6.17788 8.37997 7.06753 7.72381 7.72369C7.06765 8.37985 6.178 8.74892 5.25006 8.74993Z" fill="#727272"/>
</svg>
