<svg width="14" height="14" viewBox="0 0 14 14" fill="none" xmlns="http://www.w3.org/2000/svg">
<path d="M11.8125 1.75H8.31248C8.24549 1.74999 8.17938 1.76537 8.11927 1.79496C8.05915 1.82454 8.00664 1.86753 7.96577 1.92062L4.46577 6.47117L3.93748 5.94398C3.85622 5.86263 3.75972 5.79809 3.6535 5.75406C3.54727 5.71002 3.43341 5.68736 3.31842 5.68736C3.20343 5.68736 3.08957 5.71002 2.98335 5.75406C2.87713 5.79809 2.78062 5.86263 2.69936 5.94398L2.22413 6.41977C2.14285 6.50102 2.07838 6.59749 2.0344 6.70366C1.99041 6.80983 1.96777 6.92363 1.96777 7.03855C1.96777 7.15348 1.99041 7.26728 2.0344 7.37345C2.07838 7.47962 2.14285 7.57609 2.22413 7.65734L3.42725 8.86047L1.67725 10.6105C1.59598 10.6917 1.53151 10.7882 1.48752 10.8944C1.44354 11.0005 1.4209 11.1143 1.4209 11.2293C1.4209 11.3442 1.44354 11.458 1.48752 11.5642C1.53151 11.6703 1.59598 11.7668 1.67725 11.848L2.15249 12.3227C2.31656 12.4867 2.53904 12.5788 2.771 12.5788C3.00297 12.5788 3.22544 12.4867 3.38952 12.3227L5.13952 10.5727L6.34264 11.7759C6.42391 11.8572 6.52041 11.9218 6.62663 11.9658C6.73285 12.0098 6.84671 12.0325 6.9617 12.0325C7.07669 12.0325 7.19055 12.0098 7.29678 11.9658C7.403 11.9218 7.4995 11.8572 7.58077 11.7759L8.056 11.3001C8.13727 11.2188 8.20174 11.1224 8.24573 11.0162C8.28971 10.91 8.31235 10.7962 8.31235 10.6813C8.31235 10.5664 8.28971 10.4526 8.24573 10.3464C8.20174 10.2402 8.13727 10.1438 8.056 10.0625L7.52881 9.53531L12.0794 6.03531C12.1326 5.99433 12.1757 5.94164 12.2053 5.88132C12.2349 5.821 12.2502 5.75468 12.25 5.6875V2.1875C12.25 2.07147 12.2039 1.96019 12.1218 1.87814C12.0398 1.79609 11.9285 1.75 11.8125 1.75ZM11.375 5.47203L6.90483 8.91078L6.30655 8.3125L9.05952 5.55953C9.14154 5.47744 9.18759 5.36613 9.18753 5.25008C9.18748 5.13403 9.14133 5.02276 9.05924 4.94074C8.97715 4.85872 8.86584 4.81267 8.74979 4.81272C8.63375 4.81277 8.52247 4.85892 8.44045 4.94102L5.68748 7.69344L5.08975 7.09516L8.52795 2.625H11.375V5.47203Z" fill="#727272"/>
</svg>
