<svg width="180" height="180" viewBox="0 0 180 180" fill="none" xmlns="http://www.w3.org/2000/svg">
<path d="M117.534 104.413C117.534 89.8299 108.784 84.8299 91.2843 82.7469C78.7843 81.0799 76.2843 77.747 76.2843 71.913C76.2843 66.079 80.4513 62.33 88.7843 62.33C96.2843 62.33 100.451 64.83 102.534 71.08C102.951 72.33 104.201 73.163 105.451 73.163H112.117C113.784 73.163 115.034 71.9129 115.034 70.2469V69.83C113.367 60.663 105.867 53.5799 96.2843 52.7469V42.7469C96.2843 41.0799 95.0343 39.8299 92.9513 39.4129H86.7013C85.0343 39.4129 83.7843 40.6629 83.3673 42.7469V52.33C70.8673 53.997 62.9513 62.3299 62.9513 72.7469C62.9513 86.4969 71.2843 91.913 88.7843 93.997C100.451 96.08 104.201 98.58 104.201 105.247C104.201 111.914 98.3673 116.497 90.4513 116.497C79.6173 116.497 75.8673 111.913 74.6173 105.663C74.2013 103.997 72.9513 103.163 71.7013 103.163H64.6173C62.9513 103.163 61.7013 104.413 61.7013 106.08V106.497C63.3673 116.913 70.0343 124.413 83.7843 126.497V136.497C83.7843 138.163 85.0343 139.413 87.1173 139.83H93.3673C95.0343 139.83 96.2843 138.58 96.7013 136.497V126.497C109.201 124.413 117.534 115.663 117.534 104.413Z" fill="white"/>
<path d="M68.7844 148.163C36.2844 136.497 19.6174 100.247 31.7014 68.163C37.9514 50.663 51.7014 37.33 68.7844 31.08C70.4514 30.247 71.2844 28.997 71.2844 26.913V21.08C71.2844 19.413 70.4514 18.163 68.7844 17.747C68.3674 17.747 67.5344 17.747 67.1174 18.163C27.5344 30.663 5.8674 72.747 18.3674 112.33C25.8674 135.663 43.7844 153.58 67.1174 161.08C68.7844 161.913 70.4514 161.08 70.8674 159.413C71.2844 158.997 71.2844 158.58 71.2844 157.747V151.913C71.2844 150.663 70.0344 148.997 68.7844 148.163ZM112.951 18.163C111.284 17.33 109.617 18.163 109.201 19.83C108.784 20.247 108.784 20.663 108.784 21.497V27.33C108.784 28.997 110.034 30.663 111.284 31.497C143.784 43.163 160.451 79.413 148.367 111.497C142.117 128.997 128.367 142.33 111.284 148.58C109.617 149.413 108.784 150.663 108.784 152.747V158.58C108.784 160.247 109.617 161.497 111.284 161.913C111.701 161.913 112.534 161.913 112.951 161.497C152.534 148.997 174.201 106.913 161.701 67.33C154.201 43.58 135.867 25.663 112.951 18.163Z" fill="white"/>
</svg>
